# xmcd
#
# Track frame offsets: 
#        150
#        14054
#        31841
#        48835
#        69924
#        90762
#        110689
#        127801
#        143273
#        160555
#        181879
#        198116
#        216682
#        234623
#        249127
#        268414
#        284441
#        304009
#        323672
#        341925
#
# Disc length: 4783 seconds
#
# Revision: 0
# Processed by: cddbd v1.5.1PL0 Copyright (c) Steve Scherf et al.
# Submitted via: ExactAudioCopy v0.95a3
#
DISCID=1212ad14
DTITLE=Various Artist - MTV. Русский Чарт 2
DYEAR=2000
DGENRE=Pop
TTITLE0=Ахи-Вздохи - Киданула
TTITLE1=Микстура - Любовь Во Мне
TTITLE2=Алёна Апина - Не Давай
TTITLE3=Иzюм - Лети-Улетай
TTITLE4=А-Студио - Помни Это
TTITLE5=В. Лесовская - Океан
TTITLE6=С. Рогожин - Звёздная Ночь
TTITLE7=Основной Инстинкт - Beach Party
TTITLE8=Алёна Свиридова - Линия Жизни
TTITLE9=Фанки - К Звёздам
TTITLE10=Матрица - К Тебе Лечу
TTITLE11=Оскар - Между Тобой И Мной
TTITLE12=Валерий Леонтьев - Августин
TTITLE13=140 Ударов В Минуту - Синие Глаза
TTITLE14=H2O - Падали Звёзды
TTITLE15=Браво - Шёлковый Парашют
TTITLE16=Иванушки International - Фонари
TTITLE17=Малолетка - Там, Где Нет Любви
TTITLE18=Супернова - Я Не Верю В Любовь
TTITLE19=Девочки - Полюбила Мальчика
EXTD=
EXTT0=
EXTT1=
EXTT2=
EXTT3=
EXTT4=
EXTT5=
EXTT6=
EXTT7=
EXTT8=
EXTT9=
EXTT10=
EXTT11=
EXTT12=
EXTT13=
EXTT14=
EXTT15=
EXTT16=
EXTT17=
EXTT18=
EXTT19=
PLAYORDER=
